<svg width="30" height="30" viewBox="0 0 30 30" fill="none" xmlns="http://www.w3.org/2000/svg">
<path d="M12.7178 29.4813C9.37068 30.0346 6.6805 30.1452 4.6473 29.8133C2.61411 29.4813 1.44537 29.1632 1.14108 28.8589C0.836791 28.5546 0.518672 27.3582 0.186722 25.2697C-0.145228 23.1812 -0.0345781 20.5187 0.518672 17.2822L12.7178 29.4813ZM15.6224 28.8589L1.14108 14.3776C1.55602 12.7732 2.16459 11.2102 2.9668 9.6888C3.76902 8.16736 4.70954 6.86722 5.78838 5.78838C6.86722 4.70954 8.18811 3.7621 9.75104 2.94606C11.314 2.13001 12.8562 1.52835 14.3776 1.14108L28.8589 15.6224C28.4716 17.1992 27.87 18.7552 27.0539 20.2905C26.2379 21.8257 25.2905 23.1328 24.2116 24.2116C23.1051 25.3181 21.7981 26.2725 20.2905 27.0747C18.7829 27.8769 17.2268 28.4716 15.6224 28.8589ZM10.3527 21.39L21.39 10.3527L19.6473 8.60996L8.60996 19.6473L10.3527 21.39ZM29.4813 12.7178L17.2822 0.518672C20.6846 -0.0345781 23.3887 -0.145228 25.3942 0.186722C27.3997 0.518672 28.5546 0.836791 28.8589 1.14108C29.1632 1.44537 29.4813 2.62102 29.8133 4.66805C30.1452 6.71508 30.0346 9.39834 29.4813 12.7178Z" fill="white"/>
</svg>
