<svg width="40" height="40" viewBox="0 0 40 40" fill="none" xmlns="http://www.w3.org/2000/svg">
<path d="M0 18.45C0.0666667 16.8833 0.45 15.1333 1.15 13.2C1.85 11.2667 2.71667 9.58333 3.75 8.15C5.85 9.95 7.33333 11.7167 8.2 13.45C9.06667 15.1833 9.61667 16.85 9.85 18.45H0ZM30.05 18.45C30.2833 16.85 30.8333 15.1833 31.7 13.45C32.5667 11.7167 34.05 9.95 36.15 8.15C37.1833 9.58333 38.05 11.2667 38.75 13.2C39.45 15.1333 39.8333 16.8833 39.9 18.45H30.05ZM3.75 31.7C2.71667 30.2667 1.85 28.5917 1.15 26.675C0.45 24.7583 0.0666667 23.0167 0 21.45H9.85C9.61667 23.05 9.06667 24.7083 8.2 26.425C7.33333 28.1417 5.85 29.9 3.75 31.7ZM36.15 31.7C34.05 29.9 32.5667 28.1417 31.7 26.425C30.8333 24.7083 30.2833 23.05 30.05 21.45H39.9C39.8333 23.0167 39.45 24.7583 38.75 26.675C38.05 28.5917 37.1833 30.2667 36.15 31.7ZM12.9 18.45C12.6333 16.4167 12.0167 14.3917 11.05 12.375C10.0833 10.3583 8.31667 8.18333 5.75 5.85C7.18333 4.45 8.95 3.18333 11.05 2.05C13.15 0.916667 15.6167 0.233333 18.45 0V18.45H12.9ZM21.45 18.45V0C24.2833 0.233333 26.7583 0.916667 28.875 2.05C30.9917 3.18333 32.7667 4.45 34.2 5.85C31.6333 8.18333 29.8583 10.3583 28.875 12.375C27.8917 14.3917 27.2667 16.4167 27 18.45H21.45ZM18.45 39.9C15.45 39.6667 12.9417 38.975 10.925 37.825C8.90833 36.675 7.18333 35.4 5.75 34C8.31667 31.6667 10.0833 29.5 11.05 27.5C12.0167 25.5 12.6333 23.4833 12.9 21.45H18.45V39.9ZM21.45 39.9V21.45H27C27.2667 23.4833 27.8917 25.5 28.875 27.5C29.8583 29.5 31.6333 31.6667 34.2 34C32.7667 35.4 31.0333 36.675 29 37.825C26.9667 38.975 24.45 39.6667 21.45 39.9Z" fill="white"/>
</svg>
