<svg width="17" height="20" viewBox="0 0 17 20" fill="none" xmlns="http://www.w3.org/2000/svg">
<path d="M9.875 20L9.625 17.25H8.625C6.24167 17.25 4.20833 16.4083 2.525 14.725C0.841667 13.0417 0 11.0083 0 8.625C0 6.24167 0.845833 4.20833 2.5375 2.525C4.22917 0.841667 6.275 0 8.675 0C9.85833 0 10.9542 0.2125 11.9625 0.6375C12.9708 1.0625 13.85 1.65833 14.6 2.425C15.35 3.19167 15.9375 4.09583 16.3625 5.1375C16.7875 6.17917 17 7.31667 17 8.55C17 9.65 16.8375 10.75 16.5125 11.85C16.1875 12.95 15.7167 14 15.1 15C14.4833 16 13.7333 16.925 12.85 17.775C11.9667 18.625 10.975 19.3667 9.875 20ZM8.675 14.425C8.94167 14.425 9.16667 14.3333 9.35 14.15C9.53333 13.9667 9.625 13.7417 9.625 13.475C9.625 13.2083 9.53333 12.9833 9.35 12.8C9.16667 12.6167 8.94167 12.525 8.675 12.525C8.40833 12.525 8.18333 12.6167 8 12.8C7.81667 12.9833 7.725 13.2083 7.725 13.475C7.725 13.7417 7.81667 13.9667 8 14.15C8.18333 14.3333 8.40833 14.425 8.675 14.425ZM8 11.025H9.25C9.25 10.6083 9.32083 10.2625 9.4625 9.9875C9.60417 9.7125 9.9 9.35 10.35 8.9C10.8 8.45 11.1167 8.0375 11.3 7.6625C11.4833 7.2875 11.575 6.88333 11.575 6.45C11.575 5.7 11.3208 5.08333 10.8125 4.6C10.3042 4.11667 9.625 3.875 8.775 3.875C8.075 3.875 7.45 4.05833 6.9 4.425C6.35 4.79167 5.94167 5.29167 5.675 5.925L6.825 6.4C7.00833 5.96667 7.2625 5.64583 7.5875 5.4375C7.9125 5.22917 8.28333 5.125 8.7 5.125C9.2 5.125 9.59167 5.24583 9.875 5.4875C10.1583 5.72917 10.3 6.05 10.3 6.45C10.3 6.76667 10.2083 7.0875 10.025 7.4125C9.84167 7.7375 9.51667 8.14167 9.05 8.625C8.6 9.09167 8.3125 9.46667 8.1875 9.75C8.0625 10.0333 8 10.4583 8 11.025Z" fill="white"/>
</svg>
