<svg width="20" height="16" viewBox="0 0 20 16" fill="none" xmlns="http://www.w3.org/2000/svg">
<path d="M0 15.525V13.15C0 12.5833 0.15 12.0625 0.45 11.5875C0.75 11.1125 1.16667 10.7583 1.7 10.525C2.7 10.075 3.72653 9.7125 4.7796 9.4375C5.83265 9.1625 6.90612 9.025 8 9.025C8.55 9.025 9.1 9.06389 9.65 9.14167C10.2 9.21944 10.75 9.31388 11.3 9.425V10.75C10.55 11.0333 9.92917 11.4917 9.4375 12.125C8.94583 12.7583 8.7 13.475 8.7 14.275V15.525H0ZM10.2 15.525V14.25C10.2 13.8685 10.2917 13.5148 10.475 13.1889C10.6583 12.863 10.9167 12.6083 11.25 12.425C11.85 12.1167 12.4708 11.8854 13.1125 11.7312C13.7542 11.5771 14.4167 11.5 15.1 11.5C15.7833 11.5 16.45 11.575 17.1 11.725C17.75 11.875 18.3667 12.1083 18.95 12.425C19.2833 12.5917 19.5417 12.8406 19.725 13.1717C19.9083 13.5029 20 13.8623 20 14.25V15.525H10.2ZM15.1 10C14.442 10 13.8858 9.77283 13.4315 9.3185C12.9772 8.86417 12.75 8.308 12.75 7.65C12.75 6.992 12.9772 6.43583 13.4315 5.9815C13.8858 5.52717 14.442 5.3 15.1 5.3C15.758 5.3 16.3142 5.52717 16.7685 5.9815C17.2228 6.43583 17.45 6.992 17.45 7.65C17.45 8.308 17.2228 8.86417 16.7685 9.3185C16.3142 9.77283 15.758 10 15.1 10ZM8 7.5C6.95 7.5 6.0625 7.1375 5.3375 6.4125C4.6125 5.6875 4.25 4.8 4.25 3.75C4.25 2.7 4.6125 1.8125 5.3375 1.0875C6.0625 0.3625 6.95 0 8 0C9.05 0 9.9375 0.3625 10.6625 1.0875C11.3875 1.8125 11.75 2.7 11.75 3.75C11.75 4.8 11.3875 5.6875 10.6625 6.4125C9.9375 7.1375 9.05 7.5 8 7.5Z" fill="white"/>
</svg>
