<svg width="30" height="30" viewBox="0 0 30 30" fill="none" xmlns="http://www.w3.org/2000/svg">
<path d="M3.4125 24.6375C2.2875 23.2375 1.4375 21.7125 0.8625 20.0625C0.2875 18.4125 0 16.725 0 15C0 13.25 0.2875 11.55 0.8625 9.9C1.4375 8.25 2.2875 6.725 3.4125 5.325C4.9375 6.475 6.125 7.9 6.975 9.6C7.825 11.3 8.25 13.1 8.25 15C8.25 16.875 7.825 18.6625 6.975 20.3625C6.125 22.0625 4.9375 23.4875 3.4125 24.6375ZM15 30C13.2 30 11.4375 29.6938 9.7125 29.0813C7.9875 28.4688 6.45 27.5375 5.1 26.2875C6.825 24.8875 8.1625 23.2063 9.1125 21.2438C10.0625 19.2812 10.5375 17.2 10.5375 15C10.5375 12.8 10.0625 10.7125 9.1125 8.7375C8.1625 6.7625 6.825 5.0875 5.1 3.7125C6.45 2.4625 7.9875 1.53125 9.7125 0.91875C11.4375 0.30625 13.2 0 15 0C16.8 0 18.5625 0.30625 20.2875 0.91875C22.0125 1.53125 23.55 2.4625 24.9 3.7125C23.175 5.0875 21.8375 6.7625 20.8875 8.7375C19.9375 10.7125 19.4625 12.8 19.4625 15C19.4625 17.2 19.9375 19.2812 20.8875 21.2438C21.8375 23.2063 23.175 24.8875 24.9 26.2875C23.55 27.5375 22.0125 28.4688 20.2875 29.0813C18.5625 29.6938 16.8 30 15 30ZM26.5875 24.6375C25.0625 23.4875 23.8813 22.0625 23.0438 20.3625C22.2063 18.6625 21.7875 16.875 21.7875 15C21.7875 13.1 22.2063 11.3 23.0438 9.6C23.8813 7.9 25.0625 6.475 26.5875 5.325C27.7125 6.725 28.5625 8.25 29.1375 9.9C29.7125 11.55 30 13.25 30 15C30 16.725 29.7125 18.4125 29.1375 20.0625C28.5625 21.7125 27.7125 23.2375 26.5875 24.6375Z" fill="white"/>
</svg>
